<svg width="55" height="34" viewBox="0 0 55 34" fill="none" xmlns="http://www.w3.org/2000/svg">
<mask id="path-1-outside-1_26_1386" maskUnits="userSpaceOnUse" x="-11.1166" y="-20.0898" width="77.697" height="74.6178" fill="black">
<rect fill="white" x="-11.1166" y="-20.0898" width="77.697" height="74.6178"/>
<path fill-rule="evenodd" clip-rule="evenodd" d="M8.91109 15.0375L3.29587 5.46415L6.95311 3.31902L11.8086 11.5971L43.1945 11.3815L47.9357 3.03754L51.6221 5.13224L45.9086 15.1872L45.9318 18.5749L51.7829 28.5504L48.1257 30.6956L43.3067 22.4797L11.8488 22.6957L7.14308 30.9771L3.45672 28.8824L8.9399 19.2328L8.91109 15.0375Z"/>
</mask>
<path fill-rule="evenodd" clip-rule="evenodd" d="M8.91109 15.0375L3.29587 5.46415L6.95311 3.31902L11.8086 11.5971L43.1945 11.3815L47.9357 3.03754L51.6221 5.13224L45.9086 15.1872L45.9318 18.5749L51.7829 28.5504L48.1257 30.6956L43.3067 22.4797L11.8488 22.6957L7.14308 30.9771L3.45672 28.8824L8.9399 19.2328L8.91109 15.0375Z" fill="#ECD37B"/>
<path d="M3.29587 5.46415L2.284 3.73901L0.55886 4.75088L1.57073 6.47602L3.29587 5.46415ZM8.91109 15.0375L10.911 15.0238L10.9074 14.4879L10.6362 14.0257L8.91109 15.0375ZM6.95311 3.31902L8.67825 2.30715L7.66638 0.582007L5.94124 1.59388L6.95311 3.31902ZM11.8086 11.5971L10.0834 12.609L10.6676 13.605L11.8223 13.597L11.8086 11.5971ZM43.1945 11.3815L43.2082 13.3815L44.3629 13.3735L44.9333 12.3696L43.1945 11.3815ZM47.9357 3.03754L48.9238 1.29867L47.1849 0.310587L46.1969 2.04946L47.9357 3.03754ZM51.6221 5.13224L53.361 6.12032L54.3491 4.38144L52.6102 3.39336L51.6221 5.13224ZM45.9086 15.1872L44.1697 14.1992L43.9049 14.6651L43.9086 15.201L45.9086 15.1872ZM45.9318 18.5749L43.9319 18.5886L43.9356 19.1245L44.2067 19.5867L45.9318 18.5749ZM51.7829 28.5504L52.7948 30.2756L54.52 29.2637L53.5081 27.5386L51.7829 28.5504ZM48.1257 30.6956L46.4006 31.7074L47.4124 33.4326L49.1376 32.4207L48.1257 30.6956ZM43.3067 22.4797L45.0319 21.4678L44.4477 20.4718L43.293 20.4797L43.3067 22.4797ZM11.8488 22.6957L11.835 20.6958L10.6804 20.7037L10.1099 21.7077L11.8488 22.6957ZM7.14308 30.9771L6.155 32.716L7.89387 33.704L8.88196 31.9652L7.14308 30.9771ZM3.45672 28.8824L1.71784 27.8943L0.729763 29.6332L2.46864 30.6213L3.45672 28.8824ZM8.9399 19.2328L10.6788 20.2209L10.9435 19.7549L10.9399 19.2191L8.9399 19.2328ZM1.57073 6.47602L7.18595 16.0494L10.6362 14.0257L5.02102 4.45228L1.57073 6.47602ZM5.94124 1.59388L2.284 3.73901L4.30775 7.18929L7.96498 5.04416L5.94124 1.59388ZM13.5337 10.5852L8.67825 2.30715L5.22797 4.33089L10.0834 12.609L13.5337 10.5852ZM43.1807 9.38156L11.7948 9.59713L11.8223 13.597L43.2082 13.3815L43.1807 9.38156ZM46.1969 2.04946L41.4556 10.3934L44.9333 12.3696L49.6746 4.02562L46.1969 2.04946ZM52.6102 3.39336L48.9238 1.29867L46.9477 4.77642L50.634 6.87111L52.6102 3.39336ZM47.6474 16.1753L53.361 6.12032L49.8832 4.14416L44.1697 14.1992L47.6474 16.1753ZM47.9318 18.5611L47.9085 15.1735L43.9086 15.201L43.9319 18.5886L47.9318 18.5611ZM53.5081 27.5386L47.657 17.563L44.2067 19.5867L50.0578 29.5623L53.5081 27.5386ZM49.1376 32.4207L52.7948 30.2756L50.7711 26.8253L47.1138 28.9704L49.1376 32.4207ZM41.5816 23.4916L46.4006 31.7074L49.8508 29.6837L45.0319 21.4678L41.5816 23.4916ZM11.8625 24.6957L43.3205 24.4796L43.293 20.4797L11.835 20.6958L11.8625 24.6957ZM8.88196 31.9652L13.5877 23.6838L10.1099 21.7077L5.4042 29.989L8.88196 31.9652ZM2.46864 30.6213L6.155 32.716L8.13116 29.2382L4.4448 27.1435L2.46864 30.6213ZM7.20102 18.2447L1.71784 27.8943L5.1956 29.8705L10.6788 20.2209L7.20102 18.2447ZM6.91114 15.0513L6.93995 19.2465L10.9399 19.2191L10.911 15.0238L6.91114 15.0513Z" fill="white" mask="url(#path-1-outside-1_26_1386)"/>
</svg>
