<svg width="18" height="19" viewBox="0 0 18 19" fill="none" xmlns="http://www.w3.org/2000/svg">
<mask id="mask0_155_1807" style="mask-type:alpha" maskUnits="userSpaceOnUse" x="0" y="0" width="18" height="19">
<path fill-rule="evenodd" clip-rule="evenodd" d="M0.823975 0.833496H17.9947V18.7543H0.823975V0.833496Z" fill="white"/>
</mask>
<g mask="url(#mask0_155_1807)">
<path fill-rule="evenodd" clip-rule="evenodd" d="M10.638 12.7427C11.6464 12.7427 12.4673 13.5536 12.4673 14.5502V17.1136C12.4673 17.3277 12.6399 17.4994 12.861 17.5044H14.4575C15.7155 17.5044 16.7383 16.4994 16.7383 15.2644V7.99441C16.7324 7.56941 16.5289 7.16941 16.1796 6.90358L10.6572 2.52192C9.91595 1.93775 8.879 1.93775 8.1352 2.52358L2.65055 6.90192C2.28787 7.17608 2.08433 7.57608 2.08014 8.00858V15.2644C2.08014 16.4994 3.10286 17.5044 4.36094 17.5044H5.9725C6.19949 17.5044 6.38377 17.3252 6.38377 17.1052C6.38377 17.0569 6.38963 17.0086 6.39968 16.9627V14.5502C6.39968 13.5594 7.21551 12.7494 8.21645 12.7427H10.638ZM14.4575 18.7544H12.8459C11.9229 18.7327 11.2109 18.0119 11.2109 17.1136V14.5502C11.2109 14.2427 10.9537 13.9927 10.638 13.9927H8.22064C7.91156 13.9944 7.65609 14.2452 7.65609 14.5502V17.1052C7.65609 17.1677 7.64771 17.2277 7.63013 17.2844C7.53966 18.1094 6.83105 18.7544 5.9725 18.7544H4.36094C2.41016 18.7544 0.82373 17.1886 0.82373 15.2644V8.00275C0.832107 7.17442 1.21573 6.41608 1.87828 5.91692L7.35204 1.54608C8.55736 0.596083 10.2368 0.596082 11.4396 1.54442L16.9527 5.91942C17.6002 6.41025 17.9838 7.16692 17.9947 7.98525V15.2644C17.9947 17.1886 16.4082 18.7544 14.4575 18.7544Z" fill="#23282C"/>
</g>
</svg>
