<svg
  width="90"
  height="35"
  viewBox="0 0 90 35"
  fill="none"
  xmlns="http://www.w3.org/2000/svg"
>
<path
    d="M7.46677 8.89648C9.02699 8.89648 10.3148 9.08635 11.3302 9.46609C12.3538 9.84582 13.1133 10.4237 13.6086 11.1997C14.1122 11.9756 14.3639 12.9621 14.3639 14.1591C14.3639 15.0507 14.1988 15.8102 13.8686 16.4376C13.5384 17.0649 13.105 17.585 12.5684 17.9978C12.0319 18.4105 11.4581 18.7407 10.8473 18.9884L15.9861 27H12.6304L8.25927 19.7437H5.34933V27H2.37748V8.89648H7.46677ZM7.26865 11.373H5.34933V17.292H7.40486C8.78347 17.292 9.78234 17.036 10.4015 16.5242C11.0289 16.0124 11.3426 15.2571 11.3426 14.2582C11.3426 13.2098 11.0082 12.4668 10.3396 12.0293C9.67915 11.5918 8.65551 11.373 7.26865 11.373ZM28.8269 27H18.5741V8.89648H28.8269V11.3978H21.5459V16.3137H28.3688V18.8026H21.5459V24.4863H28.8269V27ZM68.5754 17.9235C68.5754 19.3186 68.3979 20.5899 68.043 21.7373C67.6963 22.8766 67.1721 23.8589 66.4704 24.6844C65.7687 25.5017 64.8895 26.1332 63.8329 26.579C62.7762 27.0248 61.5379 27.2477 60.118 27.2477C58.6734 27.2477 57.4186 27.0248 56.3537 26.579C55.297 26.1332 54.4179 25.4976 53.7162 24.6721C53.0228 23.8465 52.5027 22.86 52.156 21.7126C51.8092 20.5651 51.6359 19.2938 51.6359 17.8987C51.6359 16.033 51.9413 14.4068 52.5522 13.0199C53.1713 11.6248 54.1083 10.5434 55.3631 9.77565C56.6261 8.99967 58.2194 8.61168 60.1428 8.61168C62.025 8.61168 63.5893 8.99554 64.8359 9.76327C66.0824 10.531 67.0152 11.6124 67.6343 13.0075C68.2617 14.3944 68.5754 16.033 68.5754 17.9235ZM54.7563 17.9235C54.7563 19.3186 54.9462 20.528 55.3259 21.5516C55.7057 22.567 56.2877 23.3512 57.0719 23.9043C57.8644 24.4492 58.8798 24.7216 60.118 24.7216C61.3646 24.7216 62.38 24.4492 63.1642 23.9043C63.9484 23.3512 64.5263 22.567 64.8978 21.5516C65.2692 20.528 65.455 19.3186 65.455 17.9235C65.455 15.8019 65.0299 14.1426 64.1796 12.9456C63.3375 11.7404 61.992 11.1378 60.1428 11.1378C58.9045 11.1378 57.885 11.4102 57.0843 11.955C56.2918 12.4998 55.7057 13.28 55.3259 14.2953C54.9462 15.3025 54.7563 16.5118 54.7563 17.9235ZM87.5705 27H83.9176L75.0516 12.5494H74.9401C74.9732 13.0364 75.0021 13.5524 75.0268 14.0972C75.0598 14.6421 75.0846 15.2034 75.1011 15.7813C75.1259 16.3591 75.1465 16.9452 75.163 17.5396V27H72.4636V8.89648H76.0917L84.9454 23.248H85.032C85.0155 22.827 84.9949 22.3441 84.9701 21.7993C84.9454 21.2544 84.9206 20.6931 84.8958 20.1152C84.8793 19.5291 84.8669 18.9636 84.8587 18.4188V8.89648H87.5705V27Z"
    fill="white"
  />
<path
    d="M48.2711 13.5494L41.6446 9.68324C41.3143 9.49049 40.9057 9.49049 40.5754 9.68324L34.4752 13.2424C34.1493 13.4325 33.9489 13.7814 33.9489 14.1587V21.3025C33.9489 21.6765 34.1458 22.0228 34.4671 22.2141L40.5727 25.8491C40.9043 26.0465 41.3168 26.0483 41.6501 25.8538L48.2711 21.9909"
    stroke="white"
    stroke-width="3.00589"
    stroke-linejoin="round"
  />
</svg>
