<?xml version="1.0" encoding="utf-8"?>
<!-- Generator: Adobe Illustrator 19.0.0, SVG Export Plug-In . SVG Version: 6.00 Build 0)  -->
<svg version="1.1" id="Layer_1" xmlns="http://www.w3.org/2000/svg" xmlns:xlink="http://www.w3.org/1999/xlink" x="0px" y="0px"
	 viewBox="-587 439 24 24" style="enable-background:new -587 439 24 24;" xml:space="preserve">
<style type="text/css">
	.st0{fill:#7C7B7B;}
	.st1{fill:#FFFFFF;}
</style>
<path class="st0" d="M-1160,880h-8c-1.1,0-2,0.9-2,2v16c0,1.1,0.9,2,2,2h12c1.1,0,2-0.9,2-2v-12L-1160,880z M-1160,887h-1v-5l5,5
	H-1160z"/>
<text transform="matrix(1 0 0 1 -1168.583 896.3747)" class="st1" style="font-family:'Poppins-Bold'; font-size:10px;">X</text>
<rect x="-1160.3" y="890.6" class="st1" width="1.8" height="0.9"/>
<rect x="-1157.4" y="892.2" class="st1" width="1.8" height="0.9"/>
<rect x="-1158" y="890.6" class="st1" width="2.4" height="0.9"/>
<rect x="-1160.2" y="893.6" class="st1" width="1.8" height="0.9"/>
<rect x="-1157.9" y="893.6" class="st1" width="2.4" height="0.9"/>
<rect x="-1160.3" y="892.2" class="st1" width="2.4" height="0.9"/>
</svg>
