<?xml version="1.0" encoding="utf-8"?>
<!-- Generator: Adobe Illustrator 19.0.0, SVG Export Plug-In . SVG Version: 6.00 Build 0)  -->
<svg version="1.1" id="Layer_1" xmlns="http://www.w3.org/2000/svg" xmlns:xlink="http://www.w3.org/1999/xlink" x="0px" y="0px"
	 viewBox="-587 439 24 24" style="enable-background:new -587 439 24 24;" xml:space="preserve">
<style type="text/css">
	.st0{fill:#7C7B7B;}
</style>
<path class="st0" d="M-581,461h12c1.1,0,2-0.9,2-2v-12l-6-6h-8c-1.1,0-2,0.9-2,2v16C-583,460.1-582.1,461-581,461z M-574,443l5,5h-5
	V443z M-578.5,450c0.8,0,1.5,0.7,1.5,1.5s-0.7,1.5-1.5,1.5c-0.8,0-1.5-0.7-1.5-1.5C-580,450.7-579.3,450-578.5,450L-578.5,450z
	 M-578,455l1.6,1.4l2.4-4.4l4,6h-10L-578,455z"/>
</svg>
