<svg width="21" height="17" viewBox="0 0 21 17" fill="none" xmlns="http://www.w3.org/2000/svg">
<path fill-rule="evenodd" clip-rule="evenodd" d="M16.3963 8.13431C16.059 8.13431 15.7647 7.88589 15.7161 7.54214C15.6639 7.16539 15.9251 6.81797 16.3019 6.76572C17.2552 6.63189 17.9748 5.80506 17.9766 4.84072C17.9766 3.88464 17.291 3.07614 16.3459 2.92122C15.9719 2.85981 15.718 2.50597 15.7794 2.13106C15.8417 1.75614 16.1928 1.50497 16.5695 1.56456C18.181 1.82947 19.3516 3.20814 19.3516 4.84256C19.348 6.48797 18.1187 7.89964 16.4916 8.12789C16.4595 8.13247 16.4275 8.13431 16.3963 8.13431Z" fill="#44474A"/>
<mask id="mask0_378_1889" style="mask-type:luminance" maskUnits="userSpaceOnUse" x="17" y="9" width="4" height="5">
<path fill-rule="evenodd" clip-rule="evenodd" d="M17.3967 9.83484H20.8745V13.9869H17.3967V9.83484Z" fill="white"/>
</mask>
<g mask="url(#mask0_378_1889)">
<path fill-rule="evenodd" clip-rule="evenodd" d="M19.1231 13.9869C18.8462 13.9869 18.585 13.8183 18.4805 13.5442C18.3448 13.1894 18.5236 12.7916 18.8783 12.6569C19.4998 12.4204 19.4998 12.1591 19.4998 12.0335C19.4998 11.632 18.9892 11.3515 17.9827 11.2012C17.6078 11.1444 17.3484 10.7951 17.4043 10.4184C17.4602 10.0425 17.8086 9.79228 18.1871 9.84086C20.4082 10.1736 20.8748 11.2168 20.8748 12.0335C20.8748 12.5322 20.6786 13.4424 19.3678 13.942C19.2871 13.9723 19.2046 13.9869 19.1231 13.9869Z" fill="#44474A"/>
</g>
<path fill-rule="evenodd" clip-rule="evenodd" d="M10.896 11.5879C8.71801 11.5879 6.12109 11.8555 6.12109 13.1297C6.12109 14.4139 8.71801 14.6834 10.896 14.6834C13.074 14.6834 15.67 14.4167 15.67 13.1453C15.67 11.8583 13.074 11.5879 10.896 11.5879ZM10.896 16.0584C9.37526 16.0584 4.74609 16.0584 4.74609 13.1297C4.74609 10.2129 9.37526 10.2129 10.896 10.2129C12.4168 10.2129 17.045 10.2129 17.045 13.1453C17.045 16.0584 12.5781 16.0584 10.896 16.0584Z" fill="#44474A"/>
<path fill-rule="evenodd" clip-rule="evenodd" d="M10.8961 2.04169C9.34511 2.04169 8.08378 3.30394 8.08378 4.85494C8.08103 5.6066 8.36886 6.30969 8.89594 6.84044C9.42303 7.37119 10.1252 7.66544 10.8732 7.66819L10.8961 8.35569V7.66819C12.4471 7.66819 13.7094 6.40685 13.7094 4.85494C13.7094 3.30394 12.4471 2.04169 10.8961 2.04169ZM10.8961 9.04319H10.8714C9.75303 9.03952 8.70528 8.60135 7.92061 7.80935C7.13411 7.01827 6.70419 5.96777 6.70878 4.85219C6.70878 2.54585 8.58703 0.666687 10.8961 0.666687C13.2061 0.666687 15.0844 2.54585 15.0844 4.85494C15.0844 7.16402 13.2061 9.04319 10.8961 9.04319Z" fill="#44474A"/>
<path fill-rule="evenodd" clip-rule="evenodd" d="M5.39533 8.13433C5.36417 8.13433 5.33208 8.13249 5.3 8.12791C3.67292 7.89966 2.44458 6.48799 2.44092 4.84441C2.44092 3.20816 3.6115 1.82949 5.223 1.56458C5.60892 1.50408 5.95083 1.75799 6.01317 2.13108C6.07458 2.50599 5.82067 2.85983 5.44667 2.92124C4.50158 3.07616 3.81592 3.88466 3.81592 4.84258C3.81775 5.80508 4.53733 6.63283 5.48975 6.76574C5.8665 6.81799 6.12775 7.16541 6.0755 7.54216C6.02692 7.88591 5.73267 8.13433 5.39533 8.13433Z" fill="#44474A"/>
<path fill-rule="evenodd" clip-rule="evenodd" d="M2.66941 13.987C2.58783 13.987 2.50533 13.9723 2.42466 13.942C1.11291 13.4415 0.916748 12.5313 0.916748 12.0335C0.916748 11.2177 1.38333 10.1736 3.60533 9.84088C3.98391 9.79321 4.33041 10.0425 4.38725 10.4184C4.44316 10.7951 4.18375 11.1444 3.80883 11.2012C2.80233 11.3515 2.29175 11.632 2.29175 12.0335C2.29175 12.1591 2.29175 12.4195 2.91416 12.6569C3.26891 12.7916 3.44766 13.1895 3.312 13.5442C3.2075 13.8183 2.94625 13.987 2.66941 13.987Z" fill="#44474A"/>
</svg>
